<?xml version="1.0" standalone="no"?>
<!DOCTYPE svg PUBLIC "-//W3C//DTD SVG 20010904//EN"
 "http://www.w3.org/TR/2001/REC-SVG-20010904/DTD/svg10.dtd">
<svg version="1.0" xmlns="http://www.w3.org/2000/svg"
 width="1024.000000pt" height="1024.000000pt" viewBox="0 0 1024.000000 1024.000000"
 preserveAspectRatio="xMidYMid meet">

<g transform="translate(0.000000,1024.000000) scale(0.100000,-0.100000)"
fill="#D4AF37" stroke="none">
<path d="M5816 7918 c-31 -26 13 104 -511 -1508 -450 -1384 -522 -1602 -636
-1939 l-92 -273 -132 438 c-348 1156 -399 1322 -416 1356 -35 68 -92 87 -144
46 -15 -11 -86 -100 -159 -197 -160 -215 -247 -308 -323 -349 -121 -63 -117
-63 -708 -72 -297 -5 -601 -11 -675 -14 -522 -24 -1002 -48 -1039 -54 -53 -8
-74 -33 -49 -58 11 -11 44 -19 105 -25 132 -12 761 -28 1548 -39 792 -11 855
-14 978 -42 129 -29 169 -69 220 -218 56 -162 202 -627 322 -1021 69 -228 164
-538 210 -689 46 -151 103 -340 126 -419 24 -79 50 -153 60 -165 24 -30 67
-13 96 39 12 22 112 306 222 630 342 1010 672 1976 845 2472 64 183 116 337
116 343 0 67 58 -137 310 -1085 62 -231 119 -444 127 -474 19 -69 50 -101 97
-101 44 0 45 1 222 299 156 263 200 317 287 349 87 33 159 40 472 47 746 15
1942 67 1991 86 31 11 41 36 22 55 -26 26 -839 59 -1831 74 -691 11 -748 15
-833 58 -56 29 -99 78 -135 155 -23 50 -106 368 -308 1172 -160 639 -282 1111
-291 1119 -28 28 -65 29 -94 4z m259 -1353 c124 -495 235 -928 246 -962 24
-75 82 -166 133 -211 44 -38 134 -85 196 -102 l45 -12 -36 -19 c-59 -30 -148
-137 -236 -284 -46 -75 -85 -131 -88 -124 -6 18 -209 771 -315 1169 -111 417
-125 462 -156 494 -51 50 -131 29 -161 -43 -16 -37 -253 -718 -443 -1271 -145
-424 -577 -1685 -647 -1890 -31 -91 -59 -169 -63 -173 -4 -4 -53 147 -110 335
-196 653 -488 1577 -517 1640 -61 129 -149 194 -312 233 l-74 18 29 21 c64 45
132 117 237 249 74 93 113 134 117 125 8 -14 71 -225 355 -1192 97 -330 182
-611 190 -625 52 -100 155 -100 206 1 44 86 229 636 628 1863 66 204 212 656
326 1005 239 737 214 664 219 659 2 -2 106 -409 231 -904z"/>
</g>
</svg>
