<?xml version="1.0" standalone="no"?>
<!DOCTYPE svg PUBLIC "-//W3C//DTD SVG 20010904//EN"
 "http://www.w3.org/TR/2001/REC-SVG-20010904/DTD/svg10.dtd">
<svg version="1.0" xmlns="http://www.w3.org/2000/svg"
 width="1024.000000pt" height="1024.000000pt" viewBox="0 0 1024.000000 1024.000000"
 preserveAspectRatio="xMidYMid meet">

<g transform="translate(0.000000,1024.000000) scale(0.100000,-0.100000)"
fill="#000000" stroke="none">
<path d="M0 5120 l0 -5120 5120 0 5120 0 0 5120 0 5120 -5120 0 -5120 0 0
-5120z m5952 3159 c11 -6 28 -29 38 -52 27 -61 115 -399 370 -1417 78 -311
155 -608 172 -660 71 -224 163 -320 350 -365 83 -20 331 -31 1488 -70 504 -17
639 -23 771 -35 108 -11 129 -16 129 -36 0 -11 -72 -13 -407 -12 -445 1 -858
-9 -1168 -27 -44 -3 -152 -7 -240 -10 -217 -7 -375 -15 -405 -20 -14 -3 -41
-8 -60 -11 -19 -4 -43 -7 -52 -8 -9 0 -15 -2 -13 -5 3 -2 -16 -17 -40 -32 -42
-27 -171 -148 -169 -159 3 -12 -11 -36 -31 -55 -12 -12 -20 -26 -18 -32 2 -6
-3 -18 -12 -27 -9 -9 -14 -16 -11 -16 10 0 -72 -111 -96 -129 -36 -28 -92 -25
-125 5 -16 14 -22 22 -15 19 21 -11 -4 32 -26 44 -16 10 -15 10 3 11 17 0 17
2 5 10 -8 5 -10 10 -5 10 6 0 2 7 -8 14 -18 14 -34 61 -17 51 12 -7 2 24 -14
44 -9 12 -8 13 3 7 9 -6 8 0 -4 17 -21 33 -25 57 -13 81 7 12 7 16 0 12 -5 -3
-13 1 -16 10 -3 8 -2 12 4 9 6 -3 10 -1 10 5 0 6 -7 13 -16 17 -13 5 -13 7 -2
14 11 7 10 11 -2 19 -12 8 -12 10 -1 10 11 0 11 3 1 15 -6 8 -9 19 -5 25 3 5
2 10 -2 10 -5 0 -9 10 -10 22 -1 11 -8 25 -15 29 -10 7 -10 9 1 9 11 0 11 3 0
17 -12 15 -12 16 1 8 13 -8 13 -7 1 8 -7 9 -10 17 -6 17 4 0 2 6 -4 14 -6 8
-11 18 -10 22 1 5 0 11 -1 14 -1 3 -4 16 -5 30 -1 14 -7 36 -12 50 -8 18 -7
27 1 32 8 6 8 8 -1 8 -6 0 -10 11 -9 25 2 15 -1 22 -7 18 -6 -4 -8 0 -4 9 3 9
0 21 -6 27 -9 9 -7 11 8 5 18 -6 19 -6 3 7 -9 8 -19 28 -21 44 -3 28 -18 87
-37 147 -5 18 -4 30 2 34 7 4 6 9 -2 14 -6 4 -14 20 -16 36 -7 55 -10 69 -18
82 -4 7 -2 12 6 12 10 0 10 2 0 8 -7 5 -15 24 -18 43 -3 19 -8 45 -10 59 -3
14 -7 34 -9 45 -1 11 -5 27 -8 35 -12 35 -14 60 -5 60 6 0 5 7 -3 16 -14 17
-16 24 -25 94 -3 24 -10 53 -16 63 -5 10 -11 37 -14 60 -4 50 -8 64 -22 98 -6
15 -9 38 -8 53 2 14 -1 26 -7 26 -6 0 -7 3 -4 7 4 3 1 13 -6 21 -9 13 -9 14 1
8 18 -11 15 5 -5 21 -10 8 -12 12 -5 8 15 -8 16 11 1 21 -8 4 -7 9 2 15 11 7
11 9 -2 9 -9 0 -17 6 -16 13 1 32 -5 45 -27 56 -50 27 -77 -14 -127 -197 -12
-45 -26 -82 -30 -82 -5 0 -6 -6 -3 -13 2 -7 -11 -58 -30 -114 -18 -56 -31
-104 -28 -107 3 -4 1 -6 -5 -6 -5 0 -10 -6 -11 -12 -8 -67 -24 -128 -33 -123
-4 3 -6 -4 -4 -15 2 -11 -1 -20 -6 -20 -6 0 -7 -4 -4 -10 3 -5 0 -10 -7 -10
-8 0 -9 -3 -3 -8 7 -4 5 -23 -6 -55 -8 -26 -18 -45 -20 -42 -3 2 -5 -6 -6 -18
-1 -50 -3 -58 -15 -51 -7 4 -8 3 -4 -5 9 -14 -12 -83 -28 -93 -7 -5 -6 -8 4
-8 13 -1 13 -2 0 -13 -9 -7 -15 -21 -15 -32 0 -11 -4 -23 -9 -27 -5 -3 -10
-19 -11 -35 -1 -15 -7 -38 -14 -50 -6 -13 -10 -23 -7 -23 3 0 -1 -15 -9 -34
-8 -18 -11 -36 -8 -40 4 -3 1 -6 -6 -6 -7 0 -9 -4 -6 -10 3 -5 1 -10 -5 -10
-6 0 -9 -3 -6 -8 2 -4 -2 -30 -9 -57 -45 -163 -58 -205 -67 -205 -5 0 -6 -4
-3 -10 3 -5 3 -16 -2 -22 -4 -7 -8 -15 -9 -18 -9 -52 -18 -81 -25 -86 -5 -3
-7 -9 -4 -14 3 -4 -2 -24 -10 -44 -8 -20 -13 -36 -10 -36 2 0 -4 -20 -15 -45
-11 -25 -17 -45 -15 -45 2 0 -3 -17 -12 -37 -8 -21 -15 -39 -14 -41 4 -7 -13
-52 -20 -52 -5 0 -6 -6 -3 -13 3 -8 -4 -37 -15 -65 -12 -29 -19 -52 -16 -52 3
0 -4 -23 -16 -51 -11 -29 -18 -54 -15 -56 2 -3 -8 -40 -24 -84 -15 -43 -26
-79 -24 -79 3 0 -2 -13 -11 -30 -9 -16 -13 -30 -9 -30 4 0 1 -7 -6 -15 -7 -8
-10 -15 -6 -15 3 0 0 -16 -8 -35 -8 -19 -12 -35 -9 -35 3 0 0 -6 -6 -13 -6 -8
-8 -16 -5 -19 3 -3 -2 -22 -10 -42 -8 -20 -13 -36 -10 -36 3 0 2 -6 -3 -12 -4
-7 -9 -17 -10 -23 -21 -85 -43 -140 -54 -137 -11 3 -11 1 -3 -8 17 -17 -4 -83
-24 -75 -11 4 -12 2 -4 -8 15 -18 4 -57 -17 -58 -14 -1 -13 -2 1 -6 15 -4 16
-8 6 -26 -7 -12 -13 -28 -14 -36 -2 -8 -9 -18 -16 -22 -8 -6 -9 -9 -1 -9 7 0
5 -16 -7 -49 -11 -27 -16 -51 -13 -55 4 -3 0 -6 -7 -6 -7 0 -10 -3 -7 -7 4 -3
0 -17 -9 -31 -11 -17 -12 -22 -3 -16 11 6 12 5 2 -8 -7 -8 -11 -17 -8 -20 3
-3 -1 -18 -9 -33 -8 -16 -12 -33 -9 -38 3 -4 -9 -6 -26 -4 -18 3 -29 1 -25 -4
3 -5 9 -7 13 -5 4 3 13 1 21 -5 11 -6 12 -9 2 -9 -7 0 -10 -5 -7 -11 4 -6 1
-10 -6 -8 -27 3 -40 -1 -34 -11 3 -5 11 -10 16 -10 6 0 7 5 3 12 -4 7 -3 8 5
4 14 -9 8 -60 -9 -81 -6 -8 -9 -18 -6 -23 3 -6 -4 -12 -17 -16 -31 -8 -64 -7
-52 2 16 11 12 32 -10 49 -20 15 -19 15 4 10 17 -4 21 -3 13 5 -5 5 -20 7 -32
3 -18 -6 -20 -9 -9 -16 12 -7 11 -9 -1 -10 -8 0 -23 -2 -32 -4 -25 -5 -31 10
-12 29 8 9 12 16 7 16 -5 0 -16 -8 -25 -19 -15 -17 -14 -20 6 -30 16 -9 29 -9
50 -1 34 12 49 5 37 -18 -13 -25 24 -71 42 -52 9 9 9 11 0 6 -6 -3 -14 -2 -18
4 -3 5 -2 10 4 10 5 0 17 3 25 6 14 5 15 2 7 -19 -5 -14 -7 -28 -3 -33 4 -4 2
-4 -4 -1 -7 4 -12 -2 -12 -16 -1 -12 -3 -31 -6 -42 -2 -11 -5 -23 -5 -26 -1
-9 -31 -7 -31 2 0 4 6 9 13 12 6 2 2 2 -10 1 -12 -2 -25 0 -28 6 -3 5 -15 10
-26 10 -10 0 -19 4 -19 10 0 5 3 9 8 9 19 -3 33 2 27 11 -3 5 0 10 7 10 10 0
10 2 0 9 -8 4 -13 12 -12 17 1 5 -4 10 -12 12 -9 2 -8 0 2 -7 13 -9 13 -11 1
-11 -8 0 -26 10 -39 23 -14 12 -22 16 -18 10 6 -12 0 -15 -20 -12 -4 0 -10 -5
-14 -12 -6 -9 -16 -6 -38 13 -24 20 -28 28 -19 38 9 10 9 11 0 6 -6 -3 -14 -2
-18 4 -3 5 0 11 7 11 33 3 38 5 37 13 0 5 5 13 13 18 10 8 10 9 -2 5 -8 -2
-14 -10 -12 -17 1 -6 -3 -10 -10 -8 -7 3 -13 10 -13 17 0 7 -9 19 -19 27 -17
12 -17 14 -4 14 9 0 20 -4 23 -10 3 -5 14 -10 23 -9 14 0 13 2 -3 9 -11 5 -14
9 -7 9 6 1 12 6 12 12 0 8 -4 8 -12 2 -7 -5 -26 -6 -43 -2 -29 6 -20 12 20 11
17 -1 17 0 2 4 -9 3 -15 9 -12 14 3 5 0 12 -6 16 -8 4 -9 3 -5 -4 8 -14 -3
-15 -22 -3 -10 6 -8 10 9 14 13 4 30 1 39 -7 27 -23 38 -27 46 -15 4 7 3 9 -3
6 -6 -4 -20 2 -32 12 -12 11 -18 22 -13 25 6 3 15 -1 22 -9 7 -8 20 -15 29
-14 10 0 7 4 -9 11 -22 10 -23 12 -6 15 10 3 23 0 29 -6 6 -6 15 -11 21 -11 5
0 1 7 -10 15 -19 14 -19 14 0 15 11 0 17 3 14 6 -4 3 -22 1 -42 -4 -21 -6 -36
-7 -36 -1 0 5 6 9 14 9 8 0 18 4 21 10 4 6 -2 7 -17 1 -13 -4 -30 -6 -38 -4
-13 4 -13 3 0 -6 13 -10 13 -13 -4 -26 -19 -14 -41 -11 -31 5 3 5 -3 13 -12
19 -10 6 -14 11 -9 11 5 0 1 9 -9 20 -10 11 -15 20 -10 20 4 0 2 7 -5 15 -10
12 -10 15 0 15 10 0 10 3 0 15 -11 13 -10 14 5 9 13 -5 16 -4 11 4 -4 7 -14
12 -22 12 -8 0 -12 5 -9 11 4 6 13 8 20 5 8 -3 12 2 11 12 -2 9 -8 18 -16 20
-10 4 -9 6 1 14 12 7 11 9 -1 7 -29 -3 -41 1 -35 11 3 6 1 10 -6 10 -7 0 -9 3
-6 7 4 3 2 12 -4 20 -9 9 -8 13 0 13 8 0 6 8 -4 23 -8 13 -12 27 -8 31 4 4 1
11 -7 16 -13 9 -13 10 0 10 12 0 13 2 1 9 -12 8 -20 35 -24 84 -1 9 -6 17 -12
17 -5 0 -3 5 5 10 13 8 12 10 -2 10 -13 0 -17 6 -14 23 2 12 -3 31 -10 43 -8
11 -11 24 -7 27 3 4 2 7 -4 7 -6 0 -10 10 -9 23 1 12 -6 38 -15 57 -13 26 -14
37 -6 42 8 5 8 8 1 8 -6 0 -16 11 -22 25 -8 17 -8 25 -1 25 6 0 3 8 -7 17 -11
11 -13 18 -5 21 7 2 6 9 -5 19 -8 9 -13 22 -10 29 3 8 0 14 -7 14 -8 0 -6 4 3
10 11 7 11 10 2 10 -7 0 -10 5 -7 10 3 6 0 10 -7 11 -10 0 -10 2 -1 6 10 3 9
8 -2 20 -8 8 -13 19 -10 24 4 5 1 9 -4 9 -6 0 -11 5 -11 11 0 5 6 7 13 3 6 -4
3 2 -7 14 -11 12 -16 22 -11 22 4 0 3 6 -2 13 -5 6 -10 23 -11 36 0 13 -6 27
-12 31 -6 4 -10 11 -9 16 1 5 -1 18 -6 29 -34 84 -34 85 -22 85 7 0 6 4 -3 10
-8 5 -11 10 -6 10 5 0 3 6 -3 14 -6 8 -11 18 -10 22 1 5 -5 25 -14 44 -8 19
-13 38 -11 42 3 5 0 8 -6 8 -7 0 -10 7 -6 15 3 8 1 15 -5 15 -6 0 -8 4 -4 9 3
5 1 12 -5 16 -6 4 -8 10 -5 15 3 4 -2 14 -11 21 -14 12 -14 14 3 20 13 5 14 8
3 8 -8 1 -20 12 -27 26 -8 19 -8 24 0 19 7 -3 5 0 -3 8 -8 7 -16 19 -18 27 -1
7 -9 20 -17 28 -9 8 -12 19 -9 25 4 7 2 8 -4 4 -7 -4 -12 -3 -12 2 0 29 -132
153 -147 138 -3 -3 -13 -1 -23 4 -40 22 -223 30 -775 35 -324 3 -664 8 -755
10 -91 2 -397 7 -680 10 -283 3 -525 8 -537 11 -24 7 -30 19 -13 29 21 13 276
25 1065 50 1273 40 1291 42 1420 105 33 16 81 49 106 73 44 42 66 69 224 285
73 100 109 127 155 117 84 -18 116 -85 225 -460 78 -269 195 -680 280 -985
119 -429 139 -491 171 -521 l25 -23 22 25 c32 36 93 167 104 224 6 31 44 159
51 170 4 6 8 21 10 35 1 14 7 36 11 50 14 38 82 274 149 520 40 143 53 195 52
205 0 3 6 18 14 34 9 16 13 31 10 33 -2 3 5 34 15 69 18 58 70 243 181 639 21
74 72 252 113 395 42 143 154 535 251 870 96 336 180 623 186 640 23 60 57 78
102 54z m-1518 -4284 c11 -8 14 -15 8 -15 -7 0 -14 0 -17 0 -3 0 -5 3 -4 6 0
4 -5 11 -13 15 -7 5 -8 9 -3 9 6 -1 19 -7 29 -15z m86 -315 c-9 -6 -9 -9 -1
-13 8 -4 8 -5 0 -3 -7 1 -13 9 -15 18 -1 11 3 15 13 11 11 -4 12 -8 3 -13z
m79 -110 c17 9 22 8 27 -5 3 -8 11 -15 17 -15 7 0 7 4 -1 12 -19 19 -14 33 6
15 10 -10 24 -17 30 -17 6 0 9 -6 6 -14 -6 -15 -41 -15 -64 -1 -9 5 -11 4 -6
-3 4 -7 2 -12 -3 -12 -6 0 -11 5 -11 10 0 6 -13 10 -29 10 -17 0 -33 5 -37 12
-5 8 -1 9 12 5 18 -7 18 -6 2 7 -10 7 -18 17 -18 21 0 5 11 -2 24 -14 20 -19
28 -21 45 -11z m-4 -40 c4 -6 15 -8 24 -5 10 3 24 -1 31 -10 7 -8 19 -15 27
-15 8 0 28 -11 45 -25 20 -17 24 -25 14 -25 -9 0 -26 10 -38 22 -12 12 -19 15
-16 7 4 -9 -2 -15 -18 -16 -13 -1 -36 -3 -50 -4 -19 -1 -22 -4 -13 -10 11 -7
11 -9 1 -9 -7 0 -15 8 -19 18 -3 9 -13 26 -22 36 -9 11 -11 17 -6 14 6 -3 16
1 24 9 12 13 11 14 -8 8 -12 -4 -21 -2 -21 4 0 14 37 14 45 1z m114 -85 c9 -2
22 -4 30 -4 10 -1 8 -6 -6 -18 -11 -10 -19 -26 -17 -36 1 -10 -4 -21 -11 -23
-8 -3 -11 -13 -8 -22 5 -13 3 -14 -7 -5 -7 6 -20 9 -29 6 -12 -4 -13 -3 -2 5
8 6 9 12 3 16 -6 3 -18 -1 -26 -10 -14 -14 -16 -14 -16 0 0 8 -7 19 -16 24
-15 8 -15 10 0 15 10 4 15 3 11 -3 -6 -10 -5 -11 31 -15 12 -1 26 -5 33 -9 19
-12 12 5 -9 22 l-21 17 21 13 c11 7 20 8 20 2 0 -5 7 -7 15 -4 20 8 19 20 -2
20 -10 1 -27 4 -38 8 -16 6 -17 6 -5 -3 8 -5 11 -13 7 -18 -5 -4 -12 -1 -17 7
-5 8 -12 11 -17 7 -4 -5 -1 -12 7 -17 11 -7 4 -9 -23 -8 -21 1 -34 5 -30 9 20
19 70 38 87 33 10 -3 26 -8 35 -9z m-59 -55 c0 -5 -4 -10 -10 -10 -5 0 -10 5
-10 10 0 6 5 10 10 10 6 0 10 -4 10 -10z m35 -69 c8 -14 -8 -21 -34 -14 -17 4
-19 8 -9 14 17 11 35 11 43 0z m-35 -31 c0 -5 -2 -10 -4 -10 -3 0 -8 5 -11 10
-3 6 -1 10 4 10 6 0 11 -4 11 -10z"/>
<path d="M4290 4466 c0 -2 8 -10 18 -17 15 -13 16 -12 3 4 -13 16 -21 21 -21
13z"/>
<path d="M4320 4366 c0 -2 8 -10 18 -17 15 -13 16 -12 3 4 -13 16 -21 21 -21
13z"/>
<path d="M4402 4214 c10 -10 20 -16 22 -13 3 3 -5 11 -17 18 -21 13 -21 12 -5
-5z"/>
<path d="M4560 4146 c0 -2 7 -7 16 -10 8 -3 12 -2 9 4 -6 10 -25 14 -25 6z"/>
<path d="M4420 4126 c0 -2 8 -10 18 -17 15 -13 16 -12 3 4 -13 16 -21 21 -21
13z"/>
<path d="M4488 4113 c7 -3 16 -2 19 1 4 3 -2 6 -13 5 -11 0 -14 -3 -6 -6z"/>
<path d="M4628 4113 c7 -3 16 -2 19 1 4 3 -2 6 -13 5 -11 0 -14 -3 -6 -6z"/>
<path d="M4427 4089 c7 -7 15 -10 18 -7 3 3 -2 9 -12 12 -14 6 -15 5 -6 -5z"/>
<path d="M4478 4073 c7 -3 16 -2 19 1 4 3 -2 6 -13 5 -11 0 -14 -3 -6 -6z"/>
<path d="M4448 4033 c7 -3 16 -2 19 1 4 3 -2 6 -13 5 -11 0 -14 -3 -6 -6z"/>
<path d="M4718 4033 c7 -3 16 -2 19 1 4 3 -2 6 -13 5 -11 0 -14 -3 -6 -6z"/>
<path d="M4800 4036 c0 -2 8 -10 18 -17 15 -13 16 -12 3 4 -13 16 -21 21 -21
13z"/>
<path d="M4800 4006 c0 -2 8 -10 18 -17 15 -13 16 -12 3 4 -13 16 -21 21 -21
13z"/>
<path d="M4581 3960 c-9 -5 -4 -7 13 -7 29 0 32 2 13 10 -8 3 -20 2 -26 -3z"/>
<path d="M4725 3950 c-3 -6 1 -7 9 -4 18 7 21 14 7 14 -6 0 -13 -4 -16 -10z"/>
<path d="M4540 3920 c8 -5 20 -10 25 -10 6 0 3 5 -5 10 -8 5 -19 10 -25 10 -5
0 -3 -5 5 -10z"/>
<path d="M4754 3922 c3 -5 0 -13 -6 -15 -9 -4 -10 -6 -1 -6 17 -1 25 16 12 25
-7 4 -9 3 -5 -4z"/>
<path d="M4510 3911 c0 -9 30 -24 36 -18 2 1 -6 8 -16 15 -11 7 -20 8 -20 3z"/>
<path d="M4597 3909 c7 -7 15 -10 18 -7 3 3 -2 9 -12 12 -14 6 -15 5 -6 -5z"/>
<path d="M4509 3880 c14 -6 32 -16 40 -23 12 -10 13 -9 6 2 -6 11 -4 13 9 8 9
-4 15 -3 11 2 -3 6 -13 10 -23 10 -9 -1 -28 2 -42 5 l-25 7 24 -11z"/>
<path d="M4660 3886 c0 -2 7 -7 16 -10 8 -3 12 -2 9 4 -6 10 -25 14 -25 6z"/>
<path d="M4788 3863 c7 -3 16 -2 19 1 4 3 -2 6 -13 5 -11 0 -14 -3 -6 -6z"/>
<path d="M4632 3836 c2 0 16 -12 33 -26 16 -14 24 -17 16 -8 -7 9 -11 21 -8
25 3 4 -6 9 -20 9 -13 1 -23 1 -21 0z"/>
<path d="M4806 3822 c-3 -4 4 -9 15 -9 23 -2 25 3 4 10 -8 4 -16 3 -19 -1z"/>
<path d="M4630 3806 c0 -2 7 -7 16 -10 8 -3 12 -2 9 4 -6 10 -25 14 -25 6z"/>
<path d="M4760 3776 c0 -2 7 -7 16 -10 8 -3 12 -2 9 4 -6 10 -25 14 -25 6z"/>
<path d="M4580 3743 c0 -6 8 -17 18 -24 16 -13 16 -13 2 6 -8 11 -16 22 -17
24 -2 2 -3 0 -3 -6z"/>
<path d="M4688 3730 c18 -11 36 -20 40 -20 14 1 -43 40 -58 40 -8 0 0 -9 18
-20z"/>
<path d="M4647 3729 c7 -7 15 -10 18 -7 3 3 -2 9 -12 12 -14 6 -15 5 -6 -5z"/>
<path d="M4680 3710 c0 -5 5 -10 11 -10 5 0 7 5 4 10 -3 6 -8 10 -11 10 -2 0
-4 -4 -4 -10z"/>
<path d="M4587 3699 c7 -7 15 -10 18 -7 3 3 -2 9 -12 12 -14 6 -15 5 -6 -5z"/>
<path d="M4584 3662 c4 -7 2 -12 -5 -12 -20 0 2 -16 38 -28 24 -8 34 -8 39 1
4 7 4 9 0 5 -10 -9 -67 12 -61 22 3 5 0 12 -6 16 -8 4 -9 3 -5 -4z"/>
<path d="M4610 3656 c0 -2 7 -7 16 -10 8 -3 12 -2 9 4 -6 10 -25 14 -25 6z"/>
<path d="M4678 3633 c7 -3 16 -2 19 1 4 3 -2 6 -13 5 -11 0 -14 -3 -6 -6z"/>
<path d="M4556 3608 c3 -5 10 -6 15 -3 13 9 11 12 -6 12 -8 0 -12 -4 -9 -9z"/>
<path d="M4680 3610 c8 -5 20 -10 25 -10 6 0 3 5 -5 10 -8 5 -19 10 -25 10 -5
0 -3 -5 5 -10z"/>
<path d="M4717 3594 c-4 -4 -3 -12 0 -18 12 -18 12 -36 0 -36 -5 0 -7 -3 -4
-6 4 -4 13 -1 21 5 8 7 21 10 28 6 7 -4 1 3 -15 15 -15 12 -25 26 -21 31 6 10
0 12 -9 3z"/>
<path d="M4720 3520 c-12 -8 -9 -10 13 -10 16 0 26 4 22 10 -8 12 -16 12 -35
0z"/>
<path d="M4630 3510 c0 -7 -8 -9 -19 -5 -11 3 -22 2 -25 -4 -3 -5 7 -8 24 -7
34 2 46 11 31 21 -6 3 -11 1 -11 -5z"/>
<path d="M4603 3473 c9 -2 23 -2 30 0 6 3 -1 5 -18 5 -16 0 -22 -2 -12 -5z"/>
<path d="M4670 3402 c0 -4 9 -13 21 -20 19 -12 19 -11 9 8 -10 19 -30 28 -30
12z"/>
</g>
</svg>
